/* XPM */
static char * address_xpm[] = {
"16 14 90 1",
" 	c None",
".	c #2D549D",
"+	c #2C539D",
"@	c #2B529D",
"#	c #2A519D",
"$	c #29509D",
"%	c #284E9D",
"&	c #284D9D",
"*	c #274C9D",
"=	c #264B9D",
"-	c #254A9D",
";	c #FFFFFF",
">	c #FBFDFF",
",	c #F7F9FF",
"'	c #F1F6FF",
")	c #ECF3FF",
"!	c #E8EFFF",
"~	c #DDE9FF",
"{	c #D8E6FF",
"]	c #D3E3FF",
"^	c #24499D",
"/	c #2D539D",
"(	c #2C529D",
"_	c #F2F7FF",
":	c #EDF4FF",
"<	c #E8F1FF",
"[	c #274D9D",
"}	c #264C9D",
"|	c #D4E3FF",
"1	c #CFE0FF",
"2	c #FFFEFF",
"3	c #F9FBFF",
"4	c #F4F8FF",
"5	c #EFF5FF",
"6	c #EAF2FF",
"7	c #E5EEFF",
"8	c #E0EBFF",
"9	c #DAE7FF",
"0	c #D6E4FF",
"a	c #D1E1FF",
"b	c #CCDEFF",
"c	c #23489D",
"d	c #FAFCFF",
"e	c #F5F9FF",
"f	c #EBF2FF",
"g	c #E7EFFF",
"h	c #E2ECFF",
"i	c #D7E6FF",
"j	c #D2E2FF",
"k	c #CDDFFF",
"l	c #C8DCFF",
"m	c #22479D",
"n	c #FCFDFF",
"o	c #F7FAFF",
"p	c #000000",
"q	c #EDF3FF",
"r	c #C4D9FF",
"s	c #22469D",
"t	c #FDFEFF",
"u	c #F3F8FF",
"v	c #E9F1FF",
"w	c #E4EEFF",
"x	c #DFEBFF",
"y	c #DBE8FF",
"z	c #D5E4FF",
"A	c #D0E1FF",
"B	c #C6DBFF",
"C	c #C1D7FF",
"D	c #FAFBFF",
"E	c #F0F6FF",
"F	c #E1ECFF",
"G	c #D6E5FF",
"H	c #BFD5FF",
"I	c #F6F9FF",
"J	c #F2F6FF",
"K	c #E8F0FF",
"L	c #E3ECFF",
"M	c #CFDFFF",
"N	c #C9DCFF",
"O	c #BFD6FF",
"P	c #F3F7FF",
"Q	c #EEF4FF",
"R	c #C6D9FF",
"S	c #CDDEFF",
"T	c #C7DBFF",
"U	c #C2D7FF",
"V	c #2B519D",
"W	c #2A509D",
"X	c #294F9D",
"Y	c #23479D",
"                ",
" ......+@#$%&*=-",
" .;;;.>,')!%~{]^",
" .;;./(_:<%[}|1^",
" .;;234567890abc",
" .;;de'fgh~ijklm",
" .;nopqpppp|pprs",
" .t3u5vwxyzAbBCs",
" .DeEppFpGppppHs",
" +IJ)KL~{]MNrOHs",
" +PQKpp9pppRppOs",
" @5678y0aSTUOHHs",
" VWX%*=-^cYsssss",
"                "};
