/* XPM */
static char * address_xpm[] = {
"16 14 70 1",
" 	c None",
".	c #2D549D",
"+	c #2D539D",
"@	c #2B529D",
"#	c #2A519D",
"$	c #294F9D",
"%	c #284E9D",
"&	c #FFFFFF",
"*	c #FEFEFF",
"=	c #2C529D",
"-	c #F1F5FF",
";	c #EAF1FF",
">	c #E4EDFF",
",	c #274D9D",
"'	c #2C539D",
")	c #2B519D",
"!	c #2A509D",
"~	c #E5EFFF",
"{	c #DFEAFF",
"]	c #264B9D",
"^	c #FBFDFF",
"/	c #F4F8FF",
"(	c #EEF4FF",
"_	c #E7F0FF",
":	c #E0EBFF",
"<	c #DAE6FF",
"[	c #254B9D",
"}	c #FDFEFF",
"|	c #F6F9FF",
"1	c #F0F5FF",
"2	c #E9F1FF",
"3	c #E2ECFF",
"4	c #DBE8FF",
"5	c #D4E4FF",
"6	c #244A9D",
"7	c #000000",
"8	c #E4EEFF",
"9	c #D0E0FF",
"0	c #23489D",
"a	c #FAFBFF",
"b	c #F4F7FF",
"c	c #EDF3FF",
"d	c #DFEBFF",
"e	c #D8E6FF",
"f	c #D2E1FF",
"g	c #CBDDFF",
"h	c #23479D",
"i	c #E8F0FF",
"j	c #C6DAFF",
"k	c #22469D",
"l	c #F7FAFF",
"m	c #F1F6FF",
"n	c #E3EDFF",
"o	c #DCE9FF",
"p	c #D5E4FF",
"q	c #CFDFFF",
"r	c #C8DCFF",
"s	c #C1D7FF",
"t	c #ECF3FF",
"u	c #D1E1FF",
"v	c #BFD6FF",
"w	c #EDF4FF",
"x	c #E6EFFF",
"y	c #D9E7FF",
"z	c #D3E3FF",
"A	c #CCDDFF",
"B	c #C5DAFF",
"C	c #BFD5FF",
"D	c #274C9D",
"E	c #24499D",
"                ",
" ..........+@#$%",
" .&&&.&&&&*=-;>,",
" .&&...&&&')!~{]",
" .&&&&&&&^/(_:<[",
" .&&&&&&}|123456",
" .&&&7&777787790",
" .&&&&&abc~defgh",
" .&&&77|7i7777jk",
" .&&&*lm;nopqrsk",
" .&&&77t777u77vk",
" .&&^/wx:yzABCvk",
" ...@!$%D]E0kkkk",
"                "};
