/* XPM */
static char * clip_xpm[] = {
"8 12 4 1",
" 	c None",
".	c #000000",
"+	c #F4F4F4",
"@	c #4A4A4A",
"   ...  ",
"  .+++. ",
" .+@@@+.",
" .+@@@+.",
".++@@++.",
".++@@++.",
".++@@++.",
".+@++@+.",
".+@@@@+.",
".+@@@@+.",
" .++++. ",
"  ....  "};
