/* XPM */
static char * deleted_xpm[] = {
"10 10 2 1",
" 	c None",
".	c #999999",
"          ",
" .   ..   ",
" .. ...   ",
"  ....    ",
"   ..     ",
"  ....    ",
"  .....   ",
" ..  ...  ",
" .    .   ",
"          "};
