/* XPM */
static char * dir_close_xpm[] = {
"16 14 81 1",
" 	c None",
".	c #000000",
"+	c #79A0D4",
"@	c #92B8E3",
"#	c #7599D1",
"$	c #8CB3DF",
"%	c #8AB0DF",
"&	c #9BBEE6",
"*	c #93B7E4",
"=	c #8BB1DF",
"-	c #789ED7",
";	c #E6F2FA",
">	c #E2EFF9",
",	c #E0EEF9",
"'	c #DFEDF8",
")	c #DAE9F6",
"!	c #CBDFF4",
"~	c #C7DDF3",
"{	c #C0D8F1",
"]	c #AFCCED",
"^	c #DCECF8",
"/	c #D1E6F5",
"(	c #CBE2F4",
"_	c #CBE1F4",
":	c #C9DFF3",
"<	c #BFD8F0",
"[	c #B2D0ED",
"}	c #ACCAED",
"|	c #A0C3E9",
"1	c #8AAEDF",
"2	c #DAEAF6",
"3	c #C1DAF0",
"4	c #BFD9F0",
"5	c #BCD7F0",
"6	c #B5D1ED",
"7	c #ABCAEC",
"8	c #A2C4EA",
"9	c #9DBEE8",
"0	c #8CB0E0",
"a	c #7397D3",
"b	c #D8E9F6",
"c	c #CAE0F3",
"d	c #BBD6EF",
"e	c #B0CFED",
"f	c #A8C8EB",
"g	c #9FC0E8",
"h	c #95B9E6",
"i	c #81A6DC",
"j	c #6788CC",
"k	c #D8EAF6",
"l	c #98BBE6",
"m	c #8CB0E2",
"n	c #799DD8",
"o	c #6484C4",
"p	c #C5DCF1",
"q	c #B8D4EE",
"r	c #AECDEC",
"s	c #A6C8EA",
"t	c #9BBDE8",
"u	c #80A3DD",
"v	c #7095D2",
"w	c #5E7DBE",
"x	c #D1E5F5",
"y	c #A0C2E7",
"z	c #97BAE6",
"A	c #91B4E3",
"B	c #8AAEE1",
"C	c #83A5DE",
"D	c #6F92D1",
"E	c #6384C7",
"F	c #5874B3",
"G	c #C0D9F1",
"H	c #94B7E3",
"I	c #7DA0DA",
"J	c #7B9ED8",
"K	c #7B9FD9",
"L	c #779BD8",
"M	c #7398D5",
"N	c #6E8ED0",
"O	c #6585C7",
"P	c #536BA3",
"                ",
"    ....        ",
"   .+@@#.       ",
"  .$%&*=-...... ",
"  .;>,',',)!~{].",
"  .^/(_(_:<[}|1.",
"  .2_344567890a.",
"  .bc45def8ghij.",
"  .kc<def8glmno.",
"  .bpqrs|thmuvw.",
"  .x6yz*ABCnDEF.",
"  .GHIJKLMNOwFP.",
"   ............ ",
"                "};
