/* XPM */
static char * group_xpm[] = {
"16 12 78 1",
" 	c None",
".	c #000000",
"+	c #83D47A",
"@	c #9EE393",
"#	c #7CD175",
"$	c #99DF8D",
"%	c #95DF8B",
"&	c #A6E69C",
"*	c #9DE494",
"=	c #80D779",
"-	c #EBFAE6",
";	c #E8F9E3",
">	c #E7F9E1",
",	c #E6F8E0",
"'	c #E0F6DA",
")	c #D3F4CC",
"!	c #CEF3C7",
"~	c #C9F1C1",
"{	c #B8EDAF",
"]	c #E3F8DC",
"^	c #DAF5D1",
"/	c #D6F4CC",
"(	c #D5F4CC",
"_	c #D1F3C9",
":	c #C9F0C0",
"<	c #BEEDB3",
"[	c #B6EDAD",
"}	c #ABE9A1",
"|	c #93DF8B",
"1	c #E1F6DA",
"2	c #CCF0C2",
"3	c #CAF0C0",
"4	c #C6F0BC",
"5	c #BEEDB5",
"6	c #B5ECAC",
"7	c #ACEAA2",
"8	c #A7E89E",
"9	c #94E08C",
"0	c #78D373",
"a	c #DFF6D8",
"b	c #D4F3CB",
"c	c #C5EFBB",
"d	c #BCEDB1",
"e	c #B2EBA9",
"f	c #A9E8A0",
"g	c #A0E696",
"h	c #88DC82",
"i	c #68CC68",
"j	c #E0F6D8",
"k	c #A1E698",
"l	c #94E28C",
"m	c #7FD87A",
"n	c #64C464",
"o	c #CDF1C5",
"p	c #C2EEB8",
"q	c #B8ECAE",
"r	c #B1EAA6",
"s	c #A5E89C",
"t	c #86DD81",
"u	c #75D270",
"v	c #5EBE5E",
"w	c #ABE7A1",
"x	c #99E391",
"y	c #93E18B",
"z	c #88DE84",
"A	c #71D16F",
"B	c #63C763",
"C	c #59B35B",
"D	c #CAF1C1",
"E	c #9EE395",
"F	c #82DA7E",
"G	c #80D87C",
"H	c #80D97B",
"I	c #7CD878",
"J	c #78D573",
"K	c #6ED06E",
"L	c #65C765",
"M	c #53A355",
"    ....        ",
"   .+@@#.       ",
"  .$%&*%=...... ",
"  .-;>,>,>')!~{.",
"  .]^/(/(_:<[}|.",
"  .1(2334567890.",
"  .ab34cde7fghi.",
"  .jb:cde7fklmn.",
"  .aopqr}sgltuv.",
"  .^5wk*xyzmABC.",
"  .DEFGHIJKLvCM.",
"   ............ "};
