/* XPM */
static char * interface_xpm[] = {
"16 16 5 1",
" 	c None",
".	c #525252",
"+	c #FBFAEF",
"@	c #EAE5B8",
"#	c #BCB156",
"                ",
" .              ",
" .              ",
" .              ",
" .    .....     ",
" .    .++++.    ",
" . ....@@@@+.   ",
" .    .@@@@@....",
" .    .@@@@@.###",
" .    .@@@@@....",
" . ....@@@@#.   ",
" .    .####.    ",
" .    .....     ",
" .              ",
" .              ",
"                "};
