/* XPM */
static char * jpilot_xpm[] = {
"16 16 6 1",
" 	c None",
".	c #000000",
"+	c #848587",
"@	c #34991E",
"#	c #F8FAF6",
"$	c #97989B",
"                ",
"   ...........  ",
"   .+++++++++.  ",
"   .+@@@@@@@+.  ",
"   .+@@@@@@@+.  ",
"   .+@@@@@@@+.  ",
"   .+@@@@@@@+.  ",
"   .+@@@@@@@+.  ",
"   .+@@@@@@@+.  ",
"   .+@@@@@@@+.  ",
"   .+++++++++.  ",
"   .++++#++++.  ",
"   .+#+#$#+#+.  ",
"   .++++#++++.  ",
"   ...........  ",
"                "};
