/* XPM */
static char * mail_xpm[] = {
"13 10 28 1",
" 	c None",
".	c #000000",
"+	c #474747",
"@	c #F5F5F5",
"#	c #323232",
"$	c #F4F4F4",
"%	c #C1C1C1",
"&	c #EAEAEA",
"*	c #EBEBEB",
"=	c #AAAAAA",
"-	c #3D3D3D",
";	c #EFEFEF",
">	c #F3F3F3",
",	c #3F3F3F",
"'	c #464646",
")	c #BDBDBD",
"!	c #D6D6D6",
"~	c #A0A0A0",
"{	c #F2F2F2",
"]	c #BABABA",
"^	c #E9E9E9",
"/	c #8C8C8C",
"(	c #BFBFBF",
"_	c #DADADA",
":	c #CDCDCD",
"<	c #A7A7A7",
"[	c #D3D3D3",
"}	c #282828",
" ........... ",
".+@@@@@@@@@#.",
".@+@@@$@$$+%.",
".@&+@@$@$+*=.",
".@@@+@@@-;**.",
".>@;+,@'+@>).",
".@$+@@+@>+!~.",
".@+$@@{$>]#^.",
".+~~/(]_:<[}.",
" ........... "};
