/* XPM */
static char * vcard_xpm[] = {
"16 16 6 1",
" 	c None",
".	c #000000",
"+	c #FFFFFF",
"@	c #4D4D4D",
"#	c #CFBF7A",
"$	c #858585",
"                ",
"                ",
" ...............",
" .+++++++++++++.",
" .+++++++++++++.",
" .+@@@+++++++++.",
" .+@#@+.+.+.+.+.",
" .+@@@+++++++++.",
" .+#@#+.+..+..+.",
" .+@#@+++++++++.",
" .+@$@+..+..+.+.",
" .+@$@+++++++++.",
" .+++++++++++++.",
" ...............",
"                ",
"                "};
