/* XPM */
static char * address_xpm[] = {
"16 16 4 1",
" 	c None",
".	c #071FF9",
"+	c #FFFFFF",
"@	c #000000",
"                ",
"                ",
" ...............",
" .+++.+++++.+++.",
" .++...+++...++.",
" .+++++++++++++.",
" .+++++++++++++.",
" .+++@+@@@@+@@+.",
" .+++++++++++++.",
" .+++@@+@+@@@@+.",
" .+++++++++++++.",
" .+++@@+@@@+@@+.",
" .+++++++++++++.",
" ...............",
"                ",
"                "};
