/* XPM */
static char * clip_xpm[] = {
"6 12 2 1",
" 	c None",
".	c #000000",
"  ... ",
" .   .",
" .   .",
"..  ..",
"..  ..",
"..  ..",
"..  ..",
". .. .",
".    .",
".    .",
" .... ",
"      "};
