/* XPM */
static char * complete_xpm[] = {
"10 10 4 1",
" 	c None",
".	c #000000",
"+	c #708C58",
"@	c #88AC84",
"        ..",
"       .+.",
"      .++.",
"..   .+++.",
".@. .+++. ",
".@@.+++.  ",
".@@+++.   ",
" .@++.    ",
"  .@.     ",
"   .      "};
