/* XPM */
static char * continue_xpm[] = {
"10 10 29 1",
" 	c None",
".	c #000000",
"+	c #B1C7AC",
"@	c #F6F9F6",
"#	c #E1EADF",
"$	c #F7F9F6",
"%	c #F0F4EF",
"&	c #ECF2EB",
"*	c #E5EDE4",
"=	c #F4F7F4",
"-	c #EFF3EE",
";	c #E4ECE3",
">	c #E0E9DE",
",	c #8EB184",
"'	c #85AB7D",
")	c #84AA7C",
"!	c #82A678",
"~	c #769C6C",
"{	c #577550",
"]	c #2E4429",
"^	c #8CB182",
"/	c #83A879",
"(	c #7DA171",
"_	c #608756",
":	c #30462B",
"<	c #7CA273",
"[	c #52744A",
"}	c #2D4526",
"|	c #31472C",
"..        ",
".+..      ",
".@#+..    ",
".$%&*+..  ",
".=-&;>#+..",
".,')!~{]..",
".^/(_:..  ",
".<[}..    ",
".|..      ",
"..        "};
