/* XPM */
static char * dir_open_xpm[] = {
"16 16 64 1",
" 	c None",
".	c #000000",
"+	c #7EA4D8",
"@	c #93B7E5",
"#	c #97BAE6",
"$	c #779CD5",
"%	c #83A9DE",
"&	c #8EB5E4",
"*	c #8DB4E3",
"=	c #7FA4DC",
"-	c #7297D4",
";	c #9BBCE8",
">	c #87AEE2",
",	c #8CB1E4",
"'	c #8BAFE2",
")	c #7FA3DE",
"!	c #8DB2E3",
"~	c #7DA1DD",
"{	c #7598D9",
"]	c #789DDA",
"^	c #80A4DF",
"/	c #4F679E",
"(	c #5874B3",
"_	c #6485CA",
":	c #DFEDF7",
"<	c #DBECF7",
"[	c #D5E8F6",
"}	c #D4E7F5",
"|	c #D2E7F5",
"1	c #CBE0F3",
"2	c #A0C3E4",
"3	c #485D8C",
"4	c #546DA8",
"5	c #BFD9EE",
"6	c #C0D9EF",
"7	c #C2DBF1",
"8	c #BED9F1",
"9	c #BDD9F0",
"0	c #B7D3EE",
"a	c #8CB3DC",
"b	c #465883",
"c	c #4C6293",
"d	c #B4D2EE",
"e	c #B3D1ED",
"f	c #AECDEB",
"g	c #93B9E0",
"h	c #6185BD",
"i	c #475B8A",
"j	c #AFCFED",
"k	c #AFCEEC",
"l	c #A0C4E7",
"m	c #8EB7DD",
"n	c #455684",
"o	c #A6C8EA",
"p	c #A5C7E9",
"q	c #A3C6E9",
"r	c #85ABDA",
"s	c #5C7CB6",
"t	c #98BCE5",
"u	c #97BCE6",
"v	c #93B9E4",
"w	c #8CB4E0",
"x	c #8BB2DF",
"y	c #759ED5",
"                ",
"                ",
"    ....        ",
"   .+@#$.       ",
"  .$%&*=-...... ",
"  .;>,>')!~{{]^.",
" .........../(_.",
".:<[}}}}}|12.34.",
".5678989890a.bc.",
" .5ddeeeeefgh.i.",
" .5jjkkkkkflm.n.",
"  .dopppppqlrs..",
"  .tuvvvvvvwxy..",
"   ............ ",
"                ",
"                "};
