/* XPM */
static char * interface_xpm[] = {
"16 16 5 1",
" 	c None",
".	c #B6B6B6",
"+	c #000000",
"@	c #726B6B",
"#	c #FEF925",
"     .          ",
" +            @@",
" +           @  ",
" +           @  ",
" +    +++++   @ ",
" +    +#.#.+  @ ",
" + ++++.#.#.+ @ ",
" +    +#.#.#+ @ ",
" +    +.#.#.+@  ",
" +    +#.#.#+   ",
" + ++++.#.#.+   ",
" +    +#.#.+    ",
" +    +++++     ",
" +              ",
" +              ",
"                "};
