/* XPM */
static char * ldap_xpm[] = {
"16 16 6 1",
" 	c None",
".	c #000000",
"+	c #E3DAB1",
"@	c #606060",
"#	c #A0A0A0",
"$	c #F6210A",
"                ",
"  .    ........ ",
"  .    .++++++. ",
"  .    .@#@#@#. ",
"  .    .#@#@#@. ",
"  .    .++++++. ",
" @.@   .++++++. ",
" @......++++++. ",
" @.@   .++++++. ",
"  .    .++++++. ",
"  .    .++++++. ",
"  .    .+++$$+. ",
"  .    .+++$$+. ",
"  .    .++++++. ",
"  .    ........ ",
"                "};
