/* XPM */
static char * new_xpm[] = {
"13 10 49 1",
" 	c None",
".	c #000000",
"+	c #D52828",
"@	c #F5CECD",
"#	c #F5CFCE",
"$	c #F4CECB",
"%	c #F4CDCB",
"&	c #9C1D1D",
"*	c #F4CDC9",
"=	c #F3C8C2",
"-	c #F3C8C4",
";	c #F4CAC7",
">	c #E5837C",
",	c #EFB6AE",
"'	c #F3CCC6",
")	c #F3CAC2",
"!	c #F3CBC6",
"~	c #F3CBC4",
"{	c #EFB7B0",
"]	c #E06F63",
"^	c #F5CECE",
"/	c #F0BFB7",
"(	c #F3C7C2",
"_	c #F0C0B5",
":	c #F3CCC4",
"<	c #F2C6BF",
"[	c #E37E70",
"}	c #F4CDC7",
"|	c #F3CBC2",
"1	c #F2CAC1",
"2	c #F1C6BA",
"3	c #E89789",
"4	c #DE6255",
"5	c #F3CAC4",
"6	c #F0C3B7",
"7	c #F2C7BF",
"8	c #E27A69",
"9	c #A61F1F",
"0	c #EEB4AD",
"a	c #DF685C",
"b	c #DE6559",
"c	c #DA5345",
"d	c #E37F6E",
"e	c #E17968",
"f	c #E89C8D",
"g	c #E58C7E",
"h	c #DF6A5A",
"i	c #E8968B",
"j	c #771616",
" ........... ",
".+@#@$%@@@%&.",
".@+$*#=$-;+>.",
".%,+*')!~+{].",
".^%*+$'*+/{{.",
".(@_++:++)<[.",
".@=+}|+12+34.",
".@+5'~677890.",
".+abcdefghij.",
" ........... "};
