/* XPM */
static char * replied_xpm[] = {
"10 10 11 1",
" 	c None",
".	c #000000",
"+	c #E0D8B0",
"@	c #B39C82",
"#	c #BCA488",
"$	c #C5AC8F",
"%	c #AA947B",
"&	c #A18D75",
"*	c #98856E",
"=	c #8F7D68",
"-	c #867561",
"       .  ",
"   .. .+. ",
"  .@..+++.",
" .#@......",
".$#@%&*=-.",
".$#@%&*=. ",
" .#@....  ",
"  .@.     ",
"   ..     ",
"          "};
