/* XPM */
static char * stock_remove_16_xpm[] = {
"16 16 9 1",
" 	c None",
".	c #000000",
"+	c #5E738B",
"@	c #617891",
"#	c #7589A0",
"$	c #7590AE",
"%	c #93A0AD",
"&	c #ADBCCE",
"*	c #C4CEDC",
"                ",
"                ",
"                ",
"                ",
"                ",
" .............  ",
".&***********%. ",
".*$$$$$$$$$$$@. ",
".#++++++++++++. ",
" .............  ",
"                ",
"                ",
"                ",
"                ",
"                ",
"                "};
