/* XPM */
static char * stock_dialog_info_48_xpm[] = {
"48 48 64 1",
" 	c None",
".	c #171815",
"+	c #262724",
"@	c #323332",
"#	c #3A341C",
"$	c #3E403F",
"%	c #4C4C4A",
"&	c #5A595A",
"*	c #70643B",
"=	c #686968",
"-	c #85794B",
";	c #787978",
">	c #908252",
",	c #838587",
"'	c #A49356",
")	c #A5976D",
"!	c #96989E",
"~	c #979B97",
"{	c #BBA763",
"]	c #A5A7AF",
"^	c #A7AAA7",
"/	c #B3B196",
"(	c #C2B077",
"_	c #BFB38B",
":	c #C9B56C",
"<	c #B4B3BB",
"[	c #B9B9B6",
"}	c #D9C776",
"|	c #C1C5D3",
"1	c #D2C6A7",
"2	c #C7C7C1",
"3	c #D4C79E",
"4	c #D6C895",
"5	c #C7C6CA",
"6	c #CAC9B9",
"7	c #CCCAB4",
"8	c #DBCB91",
"9	c #D2D6D0",
"0	c #D5D5E0",
"a	c #EBDA91",
"b	c #D2DAF0",
"c	c #D9DADE",
"d	c #EDDEA3",
"e	c #D8DCEC",
"f	c #D3DFED",
"g	c #D5E0E8",
"h	c #E8DEC0",
"i	c #DEDBED",
"j	c #EFE3B6",
"k	c #D2EAE9",
"l	c #D8E7EA",
"m	c #DCE5EE",
"n	c #E0E3F3",
"o	c #F0E5C5",
"p	c #E9E4E2",
"q	c #E5E6F1",
"r	c #E6EAEB",
"s	c #F4EBD2",
"t	c #EBECF7",
"u	c #F1EEF3",
"v	c #F6F3F8",
"w	c #F9F6EA",
"x	c #FBFAFE",
"y	c #FEFFFC",
"                                                ",
"                  9[]~!~!^[                     ",
"                [!]50qne0<!;,                   ",
"              [!5tttqqnnnnni<=;                 ",
"             ~<ttututtqqqnniie!%                ",
"            !0uvvxxvttqqnnneiii|%               ",
"           !cuvxxxxvttttqnnieeii|%              ",
"          ~cvvxxyxxvuttqqqnnneeee|@             ",
"         [[vvxxxxxxtuuttqqineeeeie]%            ",
"         !tvxxxxyxvvtttttqnieieebeb&            ",
"        [5vvxxxxxyxvvttttnqnieeeeeb]%           ",
"        ^uvvxxxxxxvvvvvttqnnnieeeebb$           ",
"       p^uvvxxxyyxyxvvvutttnneeeeeee,;          ",
"       55tvvxxxxxxxxvvvvuutqnqeeeeee]&          ",
"       [quvvvxxxxxxxxvvvvuttqneeeffb|@          ",
"       <tuvvvxxyxxxyxxxvvvtttqnnffebi+          ",
"       <ttutvxxxxxxyxxyxyvvttnnfgffeb+          ",
"       ^qttuvxvxxyyxyvyvxyrptqqmmgfbb+          ",
"       <0ttttvvvrxxyvyvyvvvutqqlllfe|@          ",
"       5<tttturvvrvvvvvvtuptqqmlllgf<$          ",
"       9!ttttuuvv5vvvtutttpqqmllklff,=          ",
"        ,qqmttrtt5ttuttttu9qmmlkklff@           ",
"        !|qmrrrutrttqqtqqm^qllkkklf]+           ",
"         ;qqmrrrmr9mmqmmmm^mlkkkkff%            ",
"         ~]qqrlllr^mmmggg26glkkkgf!+            ",
"          &0nmllll^mggggm6glkkkgf|.             ",
"           &0nnmmm69mlmgl~gkkkgfb@              ",
"            %|eeegg^9999l~lgggf|@               ",
"             %]e0<[6[2677672cf!.                ",
"              =&7[<[[5266666/%+                 ",
"               ,o11622267113'+                  ",
"               ^dowwwssssj4{*+                  ",
"               ^dddddaa}}}:'>+                  ",
"               <wsd44((:{(_4'+                  ",
"               ^ajwyysojjh3{-+                  ",
"               ]j8djdda}}::)>+                  ",
"               ^soj43_({{'14>+                  ",
"               ]ajwywwsohh4{-+                  ",
"               ^j8jjd8}:::{'*+                  ",
"               <ssh33({{''__>+                  ",
"               [-8swwoojh3('.$                  ",
"                %(84d8:::{'#.                   ",
"                 +%)))>-*##.                    ",
"                   @+,;+..                      ",
"                    $==+.                       ",
"                     &@@                        ",
"                                                ",
"                                                "};
