/* XPM */
static char * stock_mail_receive_all_xpm[] = {
"24 24 154 2",
"  	c None",
". 	c #000000",
"+ 	c #7B7B78",
"@ 	c #C7C7C3",
"# 	c #F1F0EB",
"$ 	c #BFBFBC",
"% 	c #5F5E5E",
"& 	c #E3E3DF",
"* 	c #F3F3EF",
"= 	c #F2F2EE",
"- 	c #F1F1EC",
"; 	c #F0EFEB",
"> 	c #D2D2CD",
", 	c #969592",
"' 	c #616060",
") 	c #B5B5B4",
"! 	c #F8F8F6",
"~ 	c #F7F7F5",
"{ 	c #F6F6F3",
"] 	c #F5F5F2",
"^ 	c #F4F4F0",
"/ 	c #F2F1ED",
"( 	c #F1F0EC",
"_ 	c #F0EFEA",
": 	c #EFEEE9",
"< 	c #4F4F4D",
"[ 	c #BDBCB8",
"} 	c #A7A6A3",
"| 	c #C6C6C4",
"1 	c #7C7C7B",
"2 	c #525251",
"3 	c #DBDBD9",
"4 	c #F5F4F1",
"5 	c #F4F3F0",
"6 	c #F3F2EE",
"7 	c #999894",
"8 	c #62625F",
"9 	c #BCBCB6",
"0 	c #EBE9E3",
"a 	c #838381",
"b 	c #D7D6D4",
"c 	c #A8A8A6",
"d 	c #515150",
"e 	c #7E7D7C",
"f 	c #DAD9D5",
"g 	c #EFEEE8",
"h 	c #EEEDE7",
"i 	c #4F4E4C",
"j 	c #BCBBB6",
"k 	c #EBE9E2",
"l 	c #EAE8E1",
"m 	c #F6F5F2",
"n 	c #F4F3EF",
"o 	c #B5B4B1",
"p 	c #9B9A97",
"q 	c #646361",
"r 	c #92918E",
"s 	c #EEEDE8",
"t 	c #EDECE6",
"u 	c #4E4E4C",
"v 	c #797976",
"w 	c #797874",
"x 	c #E9E8E1",
"y 	c #E8E7DF",
"z 	c #B4B3AF",
"A 	c #D0D0CD",
"B 	c #F2F2ED",
"C 	c #BFBEBA",
"D 	c #BEBDB9",
"E 	c #7A7A77",
"F 	c #979691",
"G 	c #EAE9E2",
"H 	c #959590",
"I 	c #787773",
"J 	c #B8B7B0",
"K 	c #E6E4DC",
"L 	c #A9A9A6",
"M 	c #626260",
"N 	c #ECEBE4",
"O 	c #EBEAE3",
"P 	c #E9E7E0",
"Q 	c #E8E6DF",
"R 	c #E7E5DD",
"S 	c #777671",
"T 	c #93918C",
"U 	c #BEBDB8",
"V 	c #989793",
"W 	c #ECEAE4",
"X 	c #E8E6DE",
"Y 	c #E6E4DB",
"Z 	c #E4E3DA",
"` 	c #75746F",
" .	c #91908A",
"..	c #EEECE7",
"+.	c #62615F",
"@.	c #EBEAE4",
"#.	c #E7E6DE",
"$.	c #E6E5DC",
"%.	c #E5E4DB",
"&.	c #E4E2DA",
"*.	c #CCCBC4",
"=.	c #A3A29D",
"-.	c #B6B5B2",
";.	c #0C0C0B",
">.	c #090909",
",.	c #070707",
"'.	c #CDCCC6",
").	c #959490",
"!.	c #0C0B0B",
"~.	c #71685B",
"{.	c #0B0B0B",
"].	c #E9E8E0",
"^.	c #CECDC7",
"/.	c #7C6D5A",
"(.	c #897965",
"_.	c #8F7E6A",
":.	c #96846F",
"<.	c #403F3D",
"[.	c #8A7A65",
"}.	c #8F7D68",
"|.	c #93816B",
"1.	c #998770",
"2.	c #9F8C76",
"3.	c #9D8972",
"4.	c #9D8A72",
"5.	c #A18E76",
"6.	c #A69179",
"7.	c #AB977D",
"8.	c #A79279",
"9.	c #AA957C",
"0.	c #B8A286",
"a.	c #BDA689",
"b.	c #B09A80",
"c.	c #B49E83",
"d.	c #BEA78A",
"e.	c #C2AB8E",
"f.	c #C7AE91",
"g.	c #CBB294",
"h.	c #CFB697",
"i.	c #8F7E68",
"j.	c #CCB395",
"k.	c #D1B798",
"l.	c #D5BB9B",
"m.	c #D9BF9E",
"n.	c #DEC3A1",
"o.	c #E2C6A5",
"p.	c #E6CAA8",
"q.	c #A79379",
"r.	c #897963",
"s.	c #E8CBA9",
"t.	c #ECCFAC",
"u.	c #F0D3AF",
"v.	c #93826B",
"w.	c #D7BC9C",
"                                                ",
"                                                ",
"                          . . . .               ",
"                . . . . . + @ # $ .             ",
"      . . . . . % $ & * = - ; > , .             ",
"    . ' ) ! ~ { ] ^ * / ( _ : < [ } .           ",
"    . | 1 2 3 4 5 6 / # _ : 7 8 9 0 .           ",
"    . a b c d e f / # _ g h i j k l .           ",
"      . m 4 n o p q r s t u v w x y z .         ",
"      . A * B ( ; C D E u F G H I J K .         ",
"      . L / ( _ : M t N O l P Q R S T .         ",
"        . # _ g U V W 0 l P X R Y Z `  ..       ",
"        . ; g ..+.@.G x y #.$.%.&.*.=.. .       ",
"        . -.;.>.,.G x y #.K '.).. . .           ",
"          . !.~.{.].Q ^.H . . . . /..           ",
"          . (._.:.<.. . .     . [.}.|..         ",
"          . 1.2.3..           . 4.5.6..         ",
"        . 7.8.9.0.a..       . 7.b.c.0.a..       ",
"    . . . d.e.f.g.h.. . . . . d.e.f.g.h.. . .   ",
"    . i.j.k.l.m.n.o.p.q.. i.j.k.l.m.n.o.p.q..   ",
"      . . r.s.t.u.v.. .   . . r.s.t.u.v.. .     ",
"          . . w.. .           . . w.. .         ",
"              .                   .             ",
"                                                "};
