/* XPM */
static char * stock_trash_xpm[] = {
"24 24 85 1",
" 	c None",
".	c #000000",
"+	c #252525",
"@	c #A8BA9E",
"#	c #B4C1AB",
"$	c #E1E7DD",
"%	c #838A7D",
"&	c #909F86",
"*	c #484E43",
"=	c #A0AD94",
"-	c #9EAB91",
";	c #B6C4AD",
">	c #BFCCB7",
",	c #A7B69B",
"'	c #BEC9B5",
")	c #656F5E",
"!	c #2B2E28",
"~	c #353931",
"{	c #242622",
"]	c #9BAA8F",
"^	c #9AA78E",
"/	c #98A58C",
"(	c #96A58D",
"_	c #D7DED2",
":	c #A4B398",
"<	c #A2B196",
"[	c #A0B095",
"}	c #97A38A",
"|	c #7C9674",
"1	c #B0C0AB",
"2	c #CED6C8",
"3	c #DAE1D6",
"4	c #BBC4B1",
"5	c #5B6B57",
"6	c #637354",
"7	c #748C6B",
"8	c #94AA8D",
"9	c #8FA58A",
"0	c #6F8668",
"a	c #667961",
"b	c #5D6E58",
"c	c #4D5A4B",
"d	c #485245",
"e	c #738B6E",
"f	c #687B63",
"g	c #5E6F5A",
"h	c #576452",
"i	c #495345",
"j	c #4F5B4B",
"k	c #3F453D",
"l	c #687D63",
"m	c #B9C6B4",
"n	c #65785F",
"o	c #9BAE97",
"p	c #525F4F",
"q	c #728A6D",
"r	c #4F5C4C",
"s	c #6E8468",
"t	c #4D5849",
"u	c #9BAD96",
"v	c #6E8368",
"w	c #080808",
"x	c #6E8367",
"y	c #B7C6B4",
"z	c #9AAD96",
"A	c #525F4E",
"B	c #4D5848",
"C	c #687A63",
"D	c #B7C5B4",
"E	c #6D8367",
"F	c #4C5848",
"G	c #809A78",
"H	c #A0B29A",
"I	c #60725C",
"J	c #728A6B",
"K	c #4F5B4C",
"L	c #586853",
"M	c #677A61",
"N	c #7D9775",
"O	c #7A9472",
"P	c #788F71",
"Q	c #748D6E",
"R	c #6F8568",
"S	c #6D8267",
"T	c #697D64",
"                        ",
"                        ",
"                        ",
"                        ",
"       ........         ",
"     +.@#$%&*=-..       ",
"    .;>,')!~{-]^/.      ",
"    .(_':<[=-]^/}.      ",
"    .|1234=-]^/|5.      ",
"    .67899||0abcd.      ",
"     .+effghijk+.       ",
"     .l++++++++f.       ",
"     .lmnopqrstf.       ",
"     .lmnupqrvtf.www    ",
"     .lmnupqrxtf.wwww   ",
"     .lynzAqrxBC.wwww   ",
"     .lDnzAqrEFC.wwww   ",
"     .GHnzIJKELM.www    ",
"      .NOPQJRST.ww      ",
"       ........w        ",
"                        ",
"                        ",
"                        ",
"                        "};
