/* XPM */
static char * stock_down_arrow_xpm[] = {
"24 24 73 1",
" 	c None",
".	c #000000",
"+	c #607C53",
"@	c #688559",
"#	c #729063",
"$	c #739364",
"%	c #739264",
"&	c #BEC2BB",
"*	c #BEC2BA",
"=	c #BFC3BB",
"-	c #BDC1B8",
";	c #BBBFB7",
">	c #B9BEB5",
",	c #718E62",
"'	c #89A67C",
")	c #8BAB7E",
"!	c #90AE83",
"~	c #8FAE81",
"{	c #E7E7E7",
"]	c #EAE9E9",
"^	c #ECEBEB",
"/	c #E5E4E3",
"(	c #D9D9D7",
"_	c #69875B",
":	c #8AA67F",
"<	c #8DAD7F",
"[	c #8AAC7A",
"}	c #8AAD7A",
"|	c #F4F0F4",
"1	c #F5F1F5",
"2	c #F2EFF2",
"3	c #EFECEF",
"4	c #E2E1E1",
"5	c #7A956D",
"6	c #8EAA81",
"7	c #8BAD7B",
"8	c #8BAE7B",
"9	c #F6F2F6",
"0	c #F1EDF0",
"a	c #ECEAEB",
"b	c #859F76",
"c	c #90AE81",
"d	c #91B182",
"e	c #F3EFF2",
"f	c #EFECEE",
"g	c #E4E3E3",
"h	c #759267",
"i	c #92AE85",
"j	c #95B487",
"k	c #F3EFF3",
"l	c #F0EEF0",
"m	c #EBEAEA",
"n	c #010101",
"o	c #678458",
"p	c #91AA85",
"q	c #99B48C",
"r	c #F0ECF0",
"s	c #EEECEE",
"t	c #E3E2E2",
"u	c #8CA480",
"v	c #9DB591",
"w	c #EAE9EA",
"x	c #E9E8E8",
"y	c #030303",
"z	c #6A875B",
"A	c #97B08D",
"B	c #E2E0E0",
"C	c #92AB87",
"D	c #DCDDDA",
"E	c #060606",
"F	c #94A989",
"G	c #D6D9D5",
"H	c #1D1D1D",
"                        ",
"                        ",
"                        ",
"                        ",
"                        ",
"     ..............     ",
"     .+@#$%%&*=-;>.     ",
"      .,')!~{]^/(.      ",
"      ._:<[}|1234.      ",
"       .56789|0a.       ",
"       .@bcd9efg.       ",
"        .hijklmn        ",
"        .opqrst.        ",
"         .uvwxy         ",
"         .zAtB.         ",
"          .CD.          ",
"          EFGH          ",
"           ..           ",
"           ..           ",
"                        ",
"                        ",
"                        ",
"                        ",
"                        "};
