/* XPM */
static char * stock_mail_reply_to_all_xpm[] = {
"24 24 99 2",
"  	c None",
". 	c #000000",
"+ 	c #7B7B78",
"@ 	c #C7C7C3",
"# 	c #F1F0EB",
"$ 	c #BFBFBC",
"% 	c #5F5E5E",
"& 	c #E3E3DF",
"* 	c #F3F3EF",
"= 	c #F2F2EE",
"- 	c #F1F1EC",
"; 	c #F0EFEB",
"> 	c #D2D2CD",
", 	c #969592",
"' 	c #616060",
") 	c #B5B5B4",
"! 	c #F8F8F6",
"~ 	c #F7F7F5",
"{ 	c #F6F6F3",
"] 	c #F5F5F2",
"^ 	c #F4F4F0",
"/ 	c #F2F1ED",
"( 	c #F1F0EC",
"_ 	c #F0EFEA",
": 	c #EFEEE9",
"< 	c #4F4F4D",
"[ 	c #BDBCB8",
"} 	c #A7A6A3",
"| 	c #C6C6C4",
"1 	c #7C7C7B",
"2 	c #525251",
"3 	c #DBDBD9",
"4 	c #F5F4F1",
"5 	c #F4F3F0",
"6 	c #F3F2EE",
"7 	c #999894",
"8 	c #62625F",
"9 	c #BCBCB6",
"0 	c #EBE9E3",
"a 	c #E0D8B0",
"b 	c #838381",
"c 	c #D7D6D4",
"d 	c #A8A8A6",
"e 	c #515150",
"f 	c #7E7D7C",
"g 	c #DAD9D5",
"h 	c #EFEEE8",
"i 	c #EEEDE7",
"j 	c #EBE9E2",
"k 	c #F6F5F2",
"l 	c #F4F3EF",
"m 	c #B5B4B1",
"n 	c #9B9A97",
"o 	c #646361",
"p 	c #92918E",
"q 	c #EEEDE8",
"r 	c #EDECE6",
"s 	c #B39C82",
"t 	c #E9E8E1",
"u 	c #E8E7DF",
"v 	c #D0D0CD",
"w 	c #F2F2ED",
"x 	c #BFBEBA",
"y 	c #BEBDB9",
"z 	c #7A7A77",
"A 	c #BCA488",
"B 	c #A9A9A6",
"C 	c #626260",
"D 	c #C5AC8F",
"E 	c #AA947B",
"F 	c #A18D75",
"G 	c #98856E",
"H 	c #8F7D68",
"I 	c #867561",
"J 	c #7D6D5B",
"K 	c #746554",
"L 	c #BEBDB8",
"M 	c #989793",
"N 	c #ECEAE4",
"O 	c #EEECE7",
"P 	c #62615F",
"Q 	c #EBEAE4",
"R 	c #EAE9E2",
"S 	c #B6B5B2",
"T 	c #BCBCB7",
"U 	c #979691",
"V 	c #E7E6DE",
"W 	c #ECEBE5",
"X 	c #61615E",
"Y 	c #E9E8E0",
"Z 	c #E8E6DF",
"` 	c #CECDC7",
" .	c #959590",
"..	c #797875",
"+.	c #969590",
"@.	c #CFCEC8",
"#.	c #AEADA8",
"$.	c #585754",
"%.	c #7B7A76",
"                                                ",
"                                                ",
"                          . . . .               ",
"                . . . . . + @ # $ .             ",
"      . . . . . % $ & * = - ; > , .             ",
"    . ' ) ! ~ { ] ^ * / ( _ : < [ } . .         ",
"    . | 1 2 3 4 5 6 / # _ : 7 8 9 0 . a .       ",
"    . b c d e f g / # _ h i . . j . a a a .     ",
"      . k 4 l m n o p q r . s . t u . a a a .   ",
"      . v * w ( ; x y z . A s . . . . . . . .   ",
"      . B / ( _ : C r . D A s E F G H I J K .   ",
"        . # _ h L M N . D A s E F G H I J .     ",
"        . ; h O P Q R t . A s . . . . . .       ",
"        . S r T U R t u V . s . . . .           ",
"          . W X R Y Z `  .. . .       .         ",
"          . ..+.@.#.. . .           . a .       ",
"          . $.%.. .         . .   . a a a .     ",
"            . .           . s .     . a a a .   ",
"                        . A s . . . . . . . .   ",
"                      . D A s E F G H I J K .   ",
"                      . D A s E F G H I J .     ",
"                        . A s . . . . . .       ",
"                          . s .                 ",
"                            . .                 "};
