/* XPM */
static char * stock_dialog_question_48_xpm[] = {
"48 48 64 1",
" 	c None",
".	c #161715",
"+	c #1B1C1A",
"@	c #272826",
"#	c #382621",
"$	c #492A23",
"%	c #4E291F",
"&	c #333432",
"*	c #572A20",
"=	c #5B3429",
"-	c #423E3C",
";	c #643125",
">	c #573730",
",	c #773B2D",
"'	c #724136",
")	c #4F4F4C",
"!	c #7F3C30",
"~	c #664740",
"{	c #6D453C",
"]	c #85402F",
"^	c #8C4635",
"/	c #964936",
"(	c #5D5F5C",
"_	c #78554C",
":	c #6E5953",
"<	c #8D4E3F",
"[	c #875244",
"}	c #A14F3C",
"|	c #6B6B68",
"1	c #AA5341",
"2	c #7F6963",
"3	c #856760",
"4	c #AC5B46",
"5	c #767572",
"6	c #A06558",
"7	c #B1604E",
"8	c #967169",
"9	c #B36855",
"0	c #907B78",
"a	c #868582",
"b	c #B87262",
"c	c #A17F77",
"d	c #B67D70",
"e	c #969592",
"f	c #AE9089",
"g	c #AC9693",
"h	c #C28E82",
"i	c #A3A4A1",
"j	c #B79F96",
"k	c #C9A59C",
"l	c #B4B6B3",
"m	c #C8AFA7",
"n	c #C2C3C0",
"o	c #D7BDB5",
"p	c #C9CBC8",
"q	c #D1D3D0",
"r	c #DECEC9",
"s	c #D9DBD8",
"t	c #DFE1DE",
"u	c #E4E6E3",
"v	c #E8EAE7",
"w	c #ECEEEB",
"x	c #F1F3F0",
"y	c #F9FBF8",
"                                                ",
"                                                ",
"                                                ",
"               8__>%*=>>===%___                 ",
"          8~=~__666bbb977444^^^,;*=~            ",
"       f={'6db94444711111111}1111}/,;%~         ",
"     8>[6bdb4}<]],,]]]^^///}11111111}/,*>       ",
"    {{6b97/]],]68fgjnnnnnnjmohh1111111}/,*      ",
"   {[bb4/]][30nquwxyyyxxxxxxxxxxrod11111}/%     ",
"  _[b9}]'3itxyyyxxxxxyxxxxxxxxxxxxxxob111}/%    ",
"  >b7},8awyyxxxyxxxxxxxxxxxxxxxxxxwxwxrb1}/!    ",
" c_4},5lyxyxxxxxxxyyyyyyyxxxxwxxwwwwwwww71}]~   ",
" _84][axxxxxxxxxxyxl)@++.@sxxwwwwwwwwwwvk11]{   ",
" _d4]8nxxxxxxxxxxya+.+@&@.+lwwwwwwvwvwvvo11/*   ",
" 3d4,jpxxxxxwxxxyi&.@(|(&&+@twvvwvwvvvvvo41}%   ",
" 3d7,kpxxxwxxwxwy(++(wwwq-++(tvvvvvvvvvwk41^~   ",
" 364,dpwwxxwwwwwy(+.5vwwx(++(qvvvvvvuuvwh11]~   ",
" 8[7]<nwwwwwwwwwy(&.(vvwx|++(nvvuuuuuuvv711,:   ",
" g{7/,iwwwwwwvvvxl-.)vvxp).+5lvuuuuuutvo711,2   ",
"  =b1]fswvwvvvvvvwi5qvwx5@.)iquuttvtttvd91};    ",
"  >64]6nvvvvvvvvvuuuuwxe).+|itttvttttuv911]>    ",
"  3'7/!guvvvvvuuuuvuwxq)+.)etttttttttvo911,:    ",
"   =b1,cnvuuuuuuuuutxt(&.&eptttttttstvd71/*     ",
"   =64^[isuuuuttttttxi-.+eittttsttsstr911]>     ",
"   2{91,hivtttvtttttx5@.)astssssssssuhb1/;:     ",
"    %61^[iptttttttttwa+..assssssssstrb71,$      ",
"    _{41,fitttttsttsst|@@isssssssssvhb1};)      ",
"     %61/<inststsssssvneinsssssssstrd71]$       ",
"     3{71]cisssssssssvxppqsqssqsssud91/,-       ",
"      $61},epsssssssuw)&)lpqqqqsstm941]$        ",
"      2{91^[iqsssssswe..@(lqqqqstr941/;-        ",
"       $[11,cissqsqsve...(lqqqqsrd41/,#         ",
"        %b11,0nqsqsqss)+-alqqqsth711,%          ",
"        :;911[anqqqqqqnlelqqqstk911];&          ",
"         ~'71}[anqqqqqnlnqpqttmb11/;#           ",
"          $<711<0lqpnppqpqstsdb41/,#            ",
"           $<711^8iqqqqqqstrbb41/,$             ",
"            $<411}<clqsssrh9b11},$              ",
"             $<111}/7cmmd97411},$               ",
"              >,}111111111111/;$                ",
"               2*^}11111111},*>                 ",
"                 :;^/}11}/]=>                   ",
"                   :~*,;$>~                     ",
"                                                ",
"                                                ",
"                                                ",
"                                                ",
"                                                "};
