/* XPM */
static char * stock_dialog_error_48_xpm[] = {
"48 48 64 1",
" 	c None",
".	c #590304",
"+	c #371515",
"@	c #750002",
"#	c #471514",
"$	c #6C0904",
"%	c #800100",
"&	c #58150E",
"*	c #66140D",
"=	c #950702",
"-	c #A40204",
";	c #5D231F",
">	c #522824",
",	c #463736",
"'	c #A90E08",
")	c #662C1F",
"!	c #8B1F0C",
"~	c #AF1604",
"{	c #A91C0A",
"]	c #6C3530",
"^	c #543F3D",
"/	c #B9160A",
"(	c #B31C07",
"_	c #683B35",
":	c #863022",
"<	c #B12411",
"[	c #C01F10",
"}	c #C52514",
"|	c #774840",
"1	c #BF2E14",
"2	c #CA2B10",
"3	c #6E5149",
"4	c #D13216",
"5	c #CB371A",
"6	c #795D58",
"7	c #D8391B",
"8	c #835C54",
"9	c #706562",
"0	c #95584D",
"a	c #BE463E",
"b	c #DD3D1E",
"c	c #DF3F18",
"d	c #D8482A",
"e	c #886C68",
"f	c #CE513C",
"g	c #936D66",
"h	c #C65951",
"i	c #AF6C5B",
"j	c #C56456",
"k	c #E55F3F",
"l	c #A6786F",
"m	c #D46F63",
"n	c #A6837A",
"o	c #E66D50",
"p	c #C37F6F",
"q	c #E5725B",
"r	c #C08877",
"s	c #E5836D",
"t	c #C0C2BE",
"u	c #DADCD9",
"v	c #E2E4E1",
"w	c #EBEDEA",
"x	c #F0F2EF",
"y	c #F4F6F3",
"                                                ",
"                                                ",
"                                                ",
"                                                ",
"                                                ",
"                l8|||||8g                       ",
"             l||8imssmmj00]|                    ",
"           l38psokdd777bddf:)|                  ",
"          38pskbb777774444251:&g                ",
"        r3lskccbc777444444222}<*|               ",
"       n3pqbccb7777744444}22}2}1$_              ",
"      r3rkbcc77777444444222}2}}[($|             ",
"      3roccc77774444442}22}}}}[1[<$e            ",
"     6locbbb7777444444222}}2}1[[[[{.            ",
"    n8scbb777774444442}2}}}}[[[[(/(=_           ",
"    3pbbb777744444452222}}2[[[[(///'$           ",
"   neocbb777444444}2}2}}}}[[[[[/((//=_          ",
"   6pbb77777444422222}2}}[1[[[/(/((/{*          ",
"   6ob777774444422}2}21[[[[[[/(/((/~'%e         ",
"  ngb777511111<111<<<<<<{{{{{{{{'(<~~=_         ",
"  gi77771twwvvvvvvvvvuvuuuvuuuuv<~~''{)         ",
"  6j77775uyyyyyyyyyyyyyxxxxxxxwya'~~'{*         ",
"  6f74445uyyyyyyyyyyxxxxxxxwxwwyh''''-$         ",
"  6d74445uyyyyyyyxyxxxxxwwwwwwwyh''''-@         ",
"  8574442uyyyyyxxxxxxxwwwwwwwwwxh~''-=$         ",
"  8144441uyyyxxxxxwxwwwwwwwwwwwyh'''-=*         ",
"  8<44425vyyyyyyyyyyxyxxxxxxxxxxa'''=%;         ",
"  g:444}5fqmsmmmmmmmmmhmhjhhhhha'''-=@>         ",
"   :44222}}}}1[[[(//((((~'~'''''----%$^         ",
"   )1222}21}[[[([(/(((//~'~~'''---{=%.9         ",
"   8!2}}2}[[1[([(/((//~~~~'''''----%@+          ",
"    *12}1}[[[([/(//((~'~''''''--{-=%$,          ",
"    |!2}}[1[[[(/(/((/~~'''''-----=%@#           ",
"     &<[1[1[1//(/((~~''''''------=%.,           ",
"     g*<[[[//(////~'~~''''------=%$+            ",
"      |$((//(///(~''~''''{-----=%$+             ",
"       _$</(/<(/'~~'''''------=@$+              ",
"        _${/(//'~''~'''--{--=%@.+               ",
"         e.='/'~~''''------=%$.+                ",
"           _$='''''''----=%$.#,                 ",
"            n_*%%=---==%$$.+,                   ",
"               6_;&...&&#^9                     ",
"                                                ",
"                                                ",
"                                                ",
"                                                ",
"                                                ",
"                                                "};
