/* XPM */
static char * stock_mail_send_queue_xpm[] = {
"24 24 217 2",
"  	c None",
". 	c #000000",
"+ 	c #7B7B78",
"@ 	c #C7C7C3",
"# 	c #F1F0EB",
"$ 	c #BFBFBC",
"% 	c #5F5E5E",
"& 	c #E3E3DF",
"* 	c #F3F3EF",
"= 	c #F2F2EE",
"- 	c #F1F1EC",
"; 	c #F0EFEB",
"> 	c #D2D2CD",
", 	c #969592",
"' 	c #616060",
") 	c #B5B5B4",
"! 	c #F8F8F6",
"~ 	c #F7F7F5",
"{ 	c #F6F6F3",
"] 	c #F5F5F2",
"^ 	c #F4F4F0",
"/ 	c #F2F1ED",
"( 	c #F1F0EC",
"_ 	c #F0EFEA",
": 	c #EFEEE9",
"< 	c #4F4F4D",
"[ 	c #BDBCB8",
"} 	c #A7A6A3",
"| 	c #C6C6C4",
"1 	c #7C7C7B",
"2 	c #525251",
"3 	c #DBDBD9",
"4 	c #F5F4F1",
"5 	c #F4F3F0",
"6 	c #F3F2EE",
"7 	c #999894",
"8 	c #62625F",
"9 	c #BCBCB6",
"0 	c #EBE9E3",
"a 	c #838381",
"b 	c #D7D6D4",
"c 	c #A8A8A6",
"d 	c #515150",
"e 	c #7E7D7C",
"f 	c #DAD9D5",
"g 	c #EFEEE8",
"h 	c #EEEDE7",
"i 	c #4F4E4C",
"j 	c #BCBBB6",
"k 	c #EBE9E2",
"l 	c #EAE8E1",
"m 	c #F6F5F2",
"n 	c #F4F3EF",
"o 	c #B5B4B1",
"p 	c #9B9A97",
"q 	c #646361",
"r 	c #92918E",
"s 	c #EEEDE8",
"t 	c #EDECE6",
"u 	c #4E4E4C",
"v 	c #797976",
"w 	c #797874",
"x 	c #E9E8E1",
"y 	c #E8E7DF",
"z 	c #B4B3AF",
"A 	c #3F3F3F",
"B 	c #0E0E0E",
"C 	c #1E1E1D",
"D 	c #6B6B69",
"E 	c #BFBEBA",
"F 	c #BEBDB9",
"G 	c #7A7A77",
"H 	c #979691",
"I 	c #EAE9E2",
"J 	c #959590",
"K 	c #787773",
"L 	c #B8B7B0",
"M 	c #E6E4DC",
"N 	c #101010",
"O 	c #D5D5D5",
"P 	c #FFFFFF",
"Q 	c #B1B1B1",
"R 	c #1D1D1D",
"S 	c #626260",
"T 	c #ECEBE4",
"U 	c #EBEAE3",
"V 	c #E9E7E0",
"W 	c #E8E6DF",
"X 	c #E7E5DD",
"Y 	c #777671",
"Z 	c #93918C",
"` 	c #ECEAE4",
" .	c #E8E6DE",
"..	c #E6E4DB",
"+.	c #E4E3DA",
"@.	c #75746F",
"#.	c #91908A",
"$.	c #EBEBE9",
"%.	c #B4B5B0",
"&.	c #A0A29B",
"*.	c #9FA099",
"=.	c #AAACA5",
"-.	c #C6C7C2",
";.	c #F5F6F4",
">.	c #E7E6DE",
",.	c #E6E5DC",
"'.	c #E5E4DB",
").	c #E4E2DA",
"!.	c #CCCBC4",
"~.	c #A3A29D",
"{.	c #D1D2CF",
"].	c #979890",
"^.	c #9FA199",
"/.	c #A8A9A1",
"(.	c #ADAFA6",
"_.	c #B2B3AB",
":.	c #B6B8B0",
"<.	c #BABCB4",
"[.	c #11110F",
"}.	c #1D1D1C",
"|.	c #CDCCC6",
"1.	c #959490",
"2.	c #ECECEA",
"3.	c #989991",
"4.	c #A1A39B",
"5.	c #B0B1A9",
"6.	c #BBBCB5",
"7.	c #BFC0B8",
"8.	c #C2C4BC",
"9.	c #C1C2BA",
"0.	c #D1D1D0",
"a.	c #DEDEDE",
"b.	c #9C9E96",
"c.	c #C5C7BF",
"d.	c #CBCCC5",
"e.	c #CDCEC6",
"f.	c #C5C7BE",
"g.	c #DEDFDA",
"h.	c #939393",
"i.	c #2F2F2F",
"j.	c #282828",
"k.	c #6D675E",
"l.	c #786F64",
"m.	c #9E9F98",
"n.	c #A1A29A",
"o.	c #B5B7AF",
"p.	c #CFD1C8",
"q.	c #D0D2CA",
"r.	c #CCCEC6",
"s.	c #D1D3CB",
"t.	c #736A5B",
"u.	c #908570",
"v.	c #928875",
"w.	c #665C4E",
"x.	c #9A9B93",
"y.	c #A6A8A0",
"z.	c #C8CAC1",
"A.	c #D6D7D0",
"B.	c #D5D7CF",
"C.	c #D4D5CD",
"D.	c #D3D5CD",
"E.	c #8C816F",
"F.	c #9B907F",
"G.	c #0F0E0B",
"H.	c #A5A69F",
"I.	c #A8A9A2",
"J.	c #BABBB3",
"K.	c #C9CAC2",
"L.	c #94958E",
"M.	c #D6D8D0",
"N.	c #D7D9D1",
"O.	c #DBDCD5",
"P.	c #AB9A87",
"Q.	c #A8967F",
"R.	c #BFC0BB",
"S.	c #A8AAA2",
"T.	c #C4C5BD",
"U.	c #B0B2AA",
"V.	c #D7D8D0",
"W.	c #E6E7E2",
"X.	c #998873",
"Y.	c #B6A38A",
"Z.	c #8C7C69",
"`.	c #F2F2F1",
" +	c #ADAEA6",
".+	c #B1B3AB",
"++	c #BCBDB5",
"@+	c #C6C8C0",
"#+	c #CFD0C9",
"$+	c #D4D6CE",
"%+	c #D5D6CE",
"&+	c #D6D7CF",
"*+	c #C8B298",
"=+	c #E4E4E1",
"-+	c #B3B4AC",
";+	c #B7B8B0",
">+	c #BCBEB6",
",+	c #C4C6BE",
"'+	c #C9CBC3",
")+	c #CBCCC4",
"!+	c #D0D1C9",
"~+	c #D4D5D2",
"{+	c #B7A38A",
"]+	c #DAC2A5",
"^+	c #B49E84",
"/+	c #B9B9B9",
"(+	c #F5F5F4",
"_+	c #CFD0CB",
":+	c #C0C2BB",
"<+	c #C0C2BA",
"[+	c #C8C9C2",
"}+	c #D9DAD5",
"|+	c #D9D9D8",
"1+	c #D3D3D3",
"2+	c #0D0D0D",
"3+	c #7A7A7A",
"4+	c #343434",
"                                . . . .         ",
"                      . . . . . + @ # $ .       ",
"            . . . . . % $ & * = - ; > , .       ",
"          . ' ) ! ~ { ] ^ * / ( _ : < [ } .     ",
"          . | 1 2 3 4 5 6 / # _ : 7 8 9 0 .     ",
"          . a b c d e f / # _ g h i j k l .     ",
"            . m 4 n o p q r s t u v w x y z .   ",
"          A B . C D ( ; E F G u H I J K L M .   ",
"      N . O P P O Q . R S t T U l V W X Y Z .   ",
"    . O P P P P P P O Q . ` 0 l V  .X ..+.@.#.. ",
"  . O P $.%.&.*.=.-.;.O O . x y >.,.'.).!.~.. . ",
"N Q P {.].^./.(._.:.<.[.O Q }.>.M |.1.. . .     ",
". O 2.3.4.5.6.7.8.9.. . 0.O . J . . . . .       ",
"Q a.%.b.. . c.d.e.. . f.g.O h.i.    j.k.l..     ",
"O P m.n.o.. . p.. . q.r.s.O h.N   . t.u.v.w..   ",
"a.P x.y.6.z.. . . A.B.C.D.O h.. . . . E.F.. G.. ",
"O P H.I.J.K.L.. 3.M.N.N.O.O h.N     . P.Q..     ",
"Q a.R.S.o.T.r.U.V.M.N.N.W.O h.A   . X.Y.Y.Z..   ",
". O `. +.+++@+#+$+%+&+N.0.O .     . *+*+*+*+.   ",
"N Q a.=+-+;+>+,+'+)+!+~+O Q N   . {+]+]+]+]+^+. ",
"  . /+a.(+_+:+<+[+}+|+O Q .     . . . . . . . . ",
"  1+. /+a.a.P P a.O Q h..                       ",
"      2+. Q /+/+Q 3+. N                         ",
"          4+2+. . A                             "};
