/* XPM */
static char * stock_dialog_warning_48_xpm[] = {
"48 48 32 1",
" 	c None",
".	c #000100",
"+	c #1C1406",
"@	c #211806",
"#	c #1B1C1A",
"$	c #2A2A26",
"%	c #372A0D",
"&	c #3E3E3A",
"*	c #533E13",
"=	c #565755",
"-	c #70561F",
";	c #715F3A",
">	c #7E611A",
",	c #717270",
"'	c #967122",
")	c #967B44",
"!	c #8B8D8A",
"~	c #B58A2A",
"{	c #B6944A",
"]	c #B09762",
"^	c #CC9C2D",
"/	c #CDA547",
"(	c #DEA833",
"_	c #EAB039",
":	c #DCBB70",
"<	c #F5B939",
"[	c #FABC34",
"}	c #F9C44F",
"|	c #F9CD6A",
"1	c #FCD177",
"2	c #F8D586",
"3	c #F4D695",
"                                                ",
"                                                ",
"                                                ",
"                  !=...#=                       ",
"                ,.........#!                    ",
"               .............#                   ",
"             &................                  ",
"            #......+;{{*.......=                ",
"           #.....+)221||~-......=               ",
"          #.....)22}}<<[(^^%.....=              ",
"         #....+:2|<<<[[<[_^(*.....!             ",
"        =....+2|<[<[<[<[[[[(~'.....             ",
"       ,....+:|<<[<}|||<<[<[_~-....#            ",
"       .....]|<<[[<1322}[<[<[_~*....&           ",
"      #....)|}<[<[|3;..-<[<[[<^~+....!          ",
"     !....%2}<[<[<2;....-_<[<[<^'.....          ",
"     .....:|<[<[[}3......(<<[<[<~*....&         ",
"    ,....;1[[<[<<|3......^_[<[[<_~+....         ",
"    ....$2}<<[<[[|3......~_<[[<[[^'....&        ",
"   ,....]}<[[[<[<|1......~<[<[<[<<^%....        ",
"   ....$1<[<<[[[<|1......^<[<<[[<[_'....&       ",
"  !....]}[[<[<<[<}1%....%^<[[[<<[<[(%....       ",
"  #...@2<<[[[[[<[}|-....-([<<[[<[<[(~....=      ",
"  ....;|[<[<<<[<[<|~....~(<[[<[<[[<<^%....      ",
" ,....:}<[<[[[<[<<}|+..+^<<[<<[[<<<[('....      ",
" #...%1<[[<<<<[[[[<}>..-^[[<[[[<[[<[(~....=     ",
" ....)|[[<[[[[[<<<[<<**^<<<[<[<[<<[<[_*....     ",
" ....:}<[<[<<[<[[[<}}}(<<[[[<[[<[[<[<<'....     ",
",...+2<<[<[[[<[<[<}|222}[<[<[<<[<[[<[<(....     ",
"=...*|[[<[<[<[[<[<|:%.%~<[[<[[[<[<<[<[_*...=    ",
"=...)|<<[[<[<[<[<<2%...%^_<[<<<[[[<[[<_*...=    ",
"=...{}[[<<[<[<[[<<1.....^_[[[[[<<[<[<[_'...#    ",
"=...)}<<[[<[<[<[<<|%...%~<<[<[<[[<[<[[(>....    ",
"=...%}[[<[<[<[[<[[</%.%'^[[<[<[<[[<[<<'*...&    ",
"!....{<<[[<[[<[[<<[<}(^(<<<[<[<[[<[[_~'+...&    ",
" .....>(_<[[<[<<[[<[<[[<[<[[[<[[<[_^''%....,    ",
" $.....+-~(<[<[[<[<[[<[[<[<<<[[<_^~>%......     ",
"  #.......%>'__<<<<<<<<<<(_((((~>%........,     ",
"   #..........%*->>~^^^^^''>**...........=      ",
"    =..................................#=       ",
"      ,#.............................$=!        ",
"         =#......................#$=,           ",
"              &&$..........$$$==                ",
"                                                ",
"                                                ",
"                                                ",
"                                                ",
"                                                "};
