/* XPM */
static char * stock_add_16_xpm[] = {
"16 16 16 1",
" 	c None",
".	c #000100",
"+	c #4D6076",
"@	c #5C6E85",
"#	c #5F7289",
"$	c #607794",
"%	c #6B829F",
"&	c #7689A1",
"*	c #7890AD",
"=	c #859CB9",
"-	c #939EAC",
";	c #93A6BE",
">	c #A0AFC2",
",	c #A9B7C8",
"'	c #B9C4D2",
")	c #C9D4DF",
"      ...       ",
"     .)'-.      ",
"     .'*#.      ",
"     .'*#.      ",
"     .'*#.      ",
" .....'*@.....  ",
".,>>>>;*=,'''-. ",
".)***********$. ",
".&####**%#####. ",
" .....=*$.....  ",
"     .'*#.      ",
"     .'*#.      ",
"     .'*#.      ",
"     .>#+.      ",
"      ...       ",
"                "};
