/* XPM */
static char * sylpheed_logo_xpm[] = {
"128 40 10 1",
" 	c None",
".	c #969696",
"+	c #808080",
"@	c #404040",
"#	c #565656",
"$	c #ABABAB",
"%	c #000000",
"&	c #161616",
"*	c #2B2B2B",
"=	c #6B6B6B",
"               .+@@@#++$        $                                                                                               ",
"            $#%%%%%%%%%%%&@@@@@&$                                                                                               ",
"           #%%*@@@@%%%%%%%%%&@+                                                                                                 ",
"         $&@.                                                                                                                 ..",
"         *+                                         +                      +=                                                +%$",
"        =#                                        $@*                    $=%=                                             $#*%@ ",
"        @                                       .*%%+                  .&%%&                                               $%%. ",
"        @                                        $%&                     %%=                                               +%*  ",
"        +                                        =%=                    .%&                                                @%+  ",
"        +        ++@++                           *%$                    *%=                                                %&   ",
"        #      =#+.+#%&=                        .%#                    .%&                                                =%=   ",
"        #$   $+      $&%@                       *%.                    *%=                                                *%    ",
"         #   $        $&%#                     .%*                    $%%$                                               .%#    ",
"         $#      .$    =%%.                    *%.                    #%#                                                *%$    ",
"           ==++==$     $%%@                   $%*                    $%%$                                               .%#     ",
"                        %%%     $$       $    #%=           .+.      #%@               +.           +.               $+$*%.     ",
"                        %%%    #%@     =%#   $%&    $*@   =&%%%+    $%%.  $=&%#     .=@@&%=      .=@@&%=          +#=. .%*      ",
"                        %%%  .@%%.     &%.   #%=   +&%@ $&%@@&%@    #%* $##.&%=    +$   $&%=    +$   $&%=      $#*.    *%.      ",
"                       +%%% $..%*     =%*   $%&  .+ @%+$*=   @%@   $%%.=#$ $%%   $#      +%%  $#      +%%     +&+     .%*       ",
"    ++++$              =%%@   *%.     &%.   #%=     %&$#$    %%=   #%&#$   #%#  $*$       %% $*$       %%    #&$      *%=       ",
"  =%%%%%%*=            *%%+  .%*     =%*   $%%$    +%#=     .%%$   &%@     %%$  *=       =%# *=       =%#   @%$      +%&        ",
" @%&=+++#*%&=         .%%&   *%.     &%+   #%#     @%@$     #%@   =%*     =%#  =%      =*#$ =%      =*#$   +%=      $&%=        ",
"+%&$       +@&.       *%%+  =%*     =%&    &%$     %%.     $%%$   &%.     &%$  **   .=#.    **   .=#.     $%*       @%&         ",
"+%$          $##     #%%#   &%+     &%=   =%#     +%@      *%+   =%*     #%#   %@  $$       %@  $$        #%=      #&%#         ",
".@             +#   +%%@   =%&    $&%&    &%.     *%$     @%+    &%.    $%%$   %&           %&           $%%$     #+%%$         ",
" #$             $# @%%+    &%=   .#&%=   =%*     $%#     @%+    =%*     @%@    %%.          %%.          =%%     @+*%# $        ",
"  #$             #%%*$    +%&   +=.%&    &%.$=   #%.   $**$     &%.    .%%.$+  #%&      +$  #%&      +$  @%%$  =&+$%%$+.        ",
"   =#$        .#&%@=      +%* +@+ *%=   +%%@#   $%*  $#*.      +%*     @%%@+   $&%&+$.==$   $&%&+$.==$   #%%*@%&$ +%%*$         ",
"     +##@+@@@&@@=$ +      $#%&#$ .%&    +%&+  .+@%##@=.        @%.     @%*$     $@%%%*.      $@%%%*.     $&%%*=   +%#           ",
"                    +            *%=     +     +%*+$                                                                            ",
"                    .           .%&            .%=                                                                              ",
"                                *%=            *&                                                                               ",
"                               .%&            .%=                                                                               ",
"                        .#@*@#=%%#            *&                                                                                ",
"                      .*%=$   .%&$+$         .%#                                                                                ",
"                     .%&$     &%.            &%$                                                                                ",
"                     *%.     @%+            =%#                                                                                 ",
"                     %%     @&+             &%$                                                                                 ",
"                     @%+  =&#$             =%*                                                                                  ",
"                      +=@=+               $%%.                                                                                  "};
