/* XPM */
static char * tb_address_book_xpm[] = {
"24 24 29 1",
" 	c None",
".	c #000000",
"+	c #4B6772",
"@	c #70929F",
"#	c #668B99",
"$	c #5E808D",
"%	c #B6B6B5",
"&	c #52707B",
"*	c #23393F",
"=	c #A6A7A4",
"-	c #888D82",
";	c #577782",
">	c #5B7D8A",
",	c #9E6769",
"'	c #3C4035",
")	c #54594B",
"!	c #4E6A75",
"~	c #91948E",
"{	c #AE8182",
"]	c #E1D5D2",
"^	c #F1F0EC",
"/	c #AAAAA7",
"(	c #636361",
"_	c #C2C2C0",
":	c #14090A",
"<	c #85A3AE",
"[	c #CCCDC4",
"}	c #7697A3",
"|	c #999D91",
"                        ",
"                        ",
"                        ",
"                        ",
"         ..........     ",
"        .+@#$$$$$$.     ",
"        .@#$$$$$$.%     ",
"       .&@$$*$$$$.%     ",
"       .@#$**$$$.%%     ",
"      .@#$*$*$$$.%=.    ",
"     .&@$****$$.%%-.    ",
"     .@#*$$$*$$.%=.     ",
"    .;@$$$$$*$.%%-.     ",
"    .>#$$$$$$$.%=.      ",
"   .,...')!$$.%%~.      ",
"   .{]^^^/(...%=.       ",
"   .,]^^^^^^^_%~.       ",
"    :..<[^^^^_=.        ",
"       ...}[^|-.        ",
"          ...$.         ",
"             ..         ",
"                        ",
"                        ",
"                        "};
