/* XPM */
static char * unread_xpm[] = {
"13 10 37 1",
" 	c None",
".	c #000000",
"+	c #3D81C1",
"@	c #D4E3F0",
"#	c #D5E3F1",
"$	c #2A5984",
"%	c #D1E0EF",
"&	c #D1E1EF",
"*	c #D2E2F0",
"=	c #94B9DC",
"-	c #C0D5EA",
";	c #D4E2F0",
">	c #C2D5EA",
",	c #80AAD6",
"'	c #346FA6",
")	c #C9D9ED",
"!	c #CFDEEF",
"~	c #C9DBED",
"{	c #3673AC",
"]	c #3B7EBD",
"^	c #D2E1F0",
"/	c #8EB0DA",
"(	c #A6C1E2",
"_	c #77A0D3",
":	c #CCDCEE",
"<	c #D1DFEF",
"[	c #8CAFDA",
"}	c #295883",
"|	c #BFD4E9",
"1	c #7AA9D4",
"2	c #6B9CCF",
"3	c #91B4DB",
"4	c #ABC4E3",
"5	c #9DBCDF",
"6	c #7DA6D5",
"7	c #A4C0E0",
"8	c #1E4060",
" ........... ",
".+@##@@##@@$.",
".@+@@#%@&*+=.",
".@-+#@*;*+>,.",
".#@@+#@#')>>.",
".!#~+{@]+^!/.",
".#%+@;+^!+(_.",
".@+&@;:<![}|.",
".+1123[45678.",
" ........... "};
